<?xml version="1.0" encoding="UTF-8" standalone="no"?>
<!-- Created with Inkscape (http://www.inkscape.org/) -->

<svg
   xmlns:dc="http://purl.org/dc/elements/1.1/"
   xmlns:cc="http://creativecommons.org/ns#"
   xmlns:rdf="http://www.w3.org/1999/02/22-rdf-syntax-ns#"
   xmlns:svg="http://www.w3.org/2000/svg"
   xmlns="http://www.w3.org/2000/svg"
   xmlns:sodipodi="http://sodipodi.sourceforge.net/DTD/sodipodi-0.dtd"
   xmlns:inkscape="http://www.inkscape.org/namespaces/inkscape"
   width="105.63686"
   height="187.64529"
   id="svg2"
   version="1.1"
   inkscape:version="0.48.3.1 r9886"
   sodipodi:docname="New document 1">
  <defs
     id="defs4" />
  <sodipodi:namedview
     id="base"
     pagecolor="#ff9800"
     bordercolor="#666666"
     borderopacity="1.0"
     inkscape:pageopacity="1"
     inkscape:pageshadow="2"
     inkscape:zoom="2.8"
     inkscape:cx="28.962992"
     inkscape:cy="96.55825"
     inkscape:document-units="px"
     inkscape:current-layer="layer1"
     showgrid="false"
     fit-margin-top="0"
     fit-margin-left="0"
     fit-margin-right="0"
     fit-margin-bottom="0"
     inkscape:window-width="1440"
     inkscape:window-height="827"
     inkscape:window-x="0"
     inkscape:window-y="24"
     inkscape:window-maximized="1" />
  <metadata
     id="metadata7">
    <rdf:RDF>
      <cc:Work
         rdf:about="">
        <dc:format>image/svg+xml</dc:format>
        <dc:type
           rdf:resource="http://purl.org/dc/dcmitype/StillImage" />
        <dc:title></dc:title>
      </cc:Work>
    </rdf:RDF>
  </metadata>
  <g
     inkscape:label="Layer 1"
     inkscape:groupmode="layer"
     id="layer1"
     transform="translate(-298.92851,-481.49869)">
    <path
       style="fill:#ffffff;opacity:0.69784173"
       d="m 340.17851,668.2434 c -1.7875,-0.51612 -3.25,-1.45659 -3.25,-2.08992 0,-0.63334 -2.1268,-3.13209 -4.7262,-5.55278 l -4.7262,-4.40125 19.2262,0.28526 c 10.5744,0.15689 19.2262,0.54821 19.2262,0.8696 0,0.32139 -2.025,2.27704 -4.5,4.34588 -2.475,2.06884 -4.5,4.35297 -4.5,5.07584 0,2.26803 -10.7235,3.20745 -16.75,1.46737 z m -12.564,-15.52854 c -2.0399,-2.03991 1.2176,-2.3681 21.064,-2.12218 13.8661,0.17181 21.6599,0.63198 21.5014,1.2695 -0.2826,1.13619 -41.457,1.96101 -42.5654,0.85268 z m 6.0488,-5.22784 c -3.7332,-0.3448 -6.6463,-1.07301 -6.5,-1.62484 0.2926,-1.10304 42.3587,-1.23989 43.4572,-0.14137 0.3527,0.35275 0.3061,0.97664 -0.1037,1.38642 -0.9379,0.93791 -27.8121,1.21485 -36.8535,0.37979 z m -5.4848,-5.78712 c -4.2766,-1.72566 1.0098,-2.33772 20.191,-2.33772 19.4022,0 25.4217,0.6875 20.9715,2.39522 -1.8795,0.72121 -39.3624,0.66885 -41.1625,-0.0575 z m 7.5,-5.0915 c -7.0931,-0.26272 -8.75,-0.61728 -8.75,-1.87249 0,-1.36017 2.6037,-1.5074 21.4181,-1.21107 19.7559,0.31116 23.9742,0.7784 22.2843,2.46831 -0.7226,0.72255 -21.9615,1.09641 -34.9524,0.61525 z m -7.8023,-7.3426 c -2.5188,-0.9262 -2.5667,-1.14439 -3.6563,-16.67247 -1.3383,-19.07385 -4.0392,-28.33065 -12.0031,-41.13887 -10.7086,-17.22234 -13.2883,-24.60302 -13.2883,-38.01867 0,-26.92548 21.9542,-50.14299 49,-51.81979 15.93,-0.98763 29.7244,4.26366 41.1109,15.65018 17.6606,17.66059 20.5876,44.85758 7.0674,65.66813 -3.4545,5.31722 -7.3615,9.39937 -15.4251,16.1166 -3.8918,3.24196 -7.5382,15.85553 -8.8067,30.46358 -0.5739,6.60958 -0.9501,12.76673 -0.836,13.68256 0.1141,0.91582 -0.1379,2.90263 -0.5599,4.41513 l -0.7674,2.75 -19.6416,-0.0789 c -10.8029,-0.0434 -20.7901,-0.50126 -22.1939,-1.01743 z m 30.3968,-1.55559 10.6555,-0.65196 0.01,-10.09804 c 0.01,-12.16378 1.2616,-20.46787 4.6071,-30.54498 2.1023,-6.33245 3.1615,-8.03786 6.5543,-10.55305 6.6144,-4.90342 13.5739,-13.17517 16.8363,-20.01101 3.7082,-7.76975 5.6195,-19.52889 4.5494,-27.98899 -0.6604,-5.22051 -1.2708,-6.48718 -4.6989,-9.75 -3.6486,-3.4727 -6.8558,-4.85093 -6.8558,-2.94617 0,0.44211 1.575,2.33039 3.5,4.19617 3.4507,3.34452 4.1029,5.26538 2.8746,8.46623 -0.5018,1.30773 -1.5043,0.71255 -5.0729,-3.01192 -2.4462,-2.55295 -4.6693,-4.42004 -4.9402,-4.14909 -0.5836,0.5836 5.4032,11.43133 6.7778,12.28084 0.5216,0.32237 1.6262,0.0235 2.4547,-0.66407 1.2152,-1.00851 1.7853,-0.97132 2.949,0.19241 1.2568,1.25678 1.0946,1.95411 -1.2593,5.41409 -1.486,2.18433 -3.2773,6.18623 -3.9807,8.89312 -1.7991,6.9232 -8.2398,17.31027 -14.1777,22.86441 -8.0005,7.48358 -8.5243,6.9878 -7.8596,-7.43922 0.3846,-8.34842 0.1988,-12.73138 -0.5934,-14 -0.8799,-1.40898 -0.8593,-2.31772 0.087,-3.83323 0.6823,-1.09254 1.2405,-2.12639 1.2405,-2.29745 0,-0.63579 -8.5603,-0.0859 -10.1452,0.65175 -0.9048,0.42112 -3.3895,0.29596 -5.5215,-0.27813 -3.6192,-0.97455 -3.9875,-1.42677 -5.5511,-6.81677 -2.2023,-7.59141 -1.4235,-10.88451 3.7648,-15.91986 5.4547,-5.29381 10.5362,-6.41659 15.5779,-3.44194 2.5446,1.50138 4.4166,1.87522 7.1603,1.42999 3.8494,-0.62469 4.3055,-1.53425 3.0741,-6.13114 -0.5917,-2.20865 -0.6832,-2.22689 -2.5764,-0.51353 -1.8954,1.71531 -2.0315,1.68228 -3.9563,-0.96003 -1.0964,-1.50505 -2.7006,-2.73646 -3.565,-2.73646 -1.3983,0 -1.3891,0.20155 0.083,1.82874 2.1952,2.4256 2.1251,3.88492 -0.095,1.97835 -3.2576,-2.79764 -4.0053,-2.78299 -7.697,0.15082 -4.401,3.49747 -7.858,2.95398 -8.3694,-1.31578 -0.32,-2.67208 1.977,-3.80942 3.3164,-1.64213 1.1037,1.78582 2.5,1.0576 2.5,-1.30383 0,-1.32013 1.4945,-3.75232 3.5,-5.69617 4.0589,-3.93403 4.3684,-5.07007 1.291,-4.73821 -1.4253,0.1537 -2.3386,-0.38434 -2.5742,-1.51655 -0.4565,-2.19295 3.528,-3.90467 6.0332,-2.59189 2.6312,1.37876 2.0626,-0.24496 -1.4326,-4.09066 -2.998,-3.29875 -3.4621,-3.45506 -11.5131,-3.87763 -9.2079,-0.48329 -20.3043,1.33317 -20.3043,3.32377 0,0.67956 -1.7415,1.51404 -3.8701,1.85441 -2.1286,0.34037 -4.4427,1.30876 -5.1425,2.15198 -1.8653,2.24752 -0.4783,2.94202 2.1705,1.08678 1.2579,-0.8811 2.637,-1.602 3.0646,-1.602 0.9832,0 0.9926,5.12401 0.012,6.62416 -1.0921,1.67108 -7.4989,5.3678 -9.3103,5.3721 -1.7632,0.004 -5.2899,3.55269 -6.262,6.30065 -0.3553,1.00468 -1.413,1.66601 -2.399,1.5 -1.2361,-0.20814 -1.8528,0.45054 -2.0624,2.20309 -0.1645,1.375 -0.5503,3.175 -0.8573,4 -0.9825,2.63966 -2.1457,-2.17564 -1.2682,-5.25 0.4484,-1.57101 0.3919,-2.75 -0.1318,-2.75 -1.698,0 -3.9437,7.20167 -3.9437,12.64688 0,4.97113 0.2193,5.48597 2.7448,6.44617 2.577,0.97979 14.2552,12.45221 14.2552,14.00405 0,0.39207 1.9952,1.88209 4.4337,3.31115 5.0157,2.9394 6.5036,5.89173 4.2401,8.41341 -0.8285,0.92309 -1.6566,3.02834 -1.8401,4.67834 -0.2448,2.20108 -0.9203,3.08345 -2.5364,3.31336 -2.225,0.31653 -2.6115,1.02368 -3.8098,6.9719 -0.5866,2.91169 -0.2317,3.67924 3.1208,6.75 4.9798,4.56137 3.5308,4.39083 -3.6959,-0.43497 l -5.8399,-3.89971 2.9385,5.82108 c 5.0383,9.98079 7.088,19.08288 7.7067,34.22178 0.342,8.37028 1.0056,14.11196 1.6974,14.68603 1.0705,0.88844 5.7997,1.47736 15.1794,1.89028 2.2519,0.0991 8.8894,-0.11313 14.75,-0.47172 z m 25.6555,-59.1679 c 0,-1.49805 4.9835,-9.52998 5.5571,-8.9564 0.4898,0.48984 -3.0914,7.71055 -4.5452,9.16437 -0.6825,0.68253 -1.0119,0.61484 -1.0119,-0.20797 z m -44,-75.51502 c 0,-0.85344 0.8172,-2.13972 1.8159,-2.85841 0.9987,-0.71868 2.1275,-2.14089 2.5084,-3.16045 0.4366,-1.1687 1.274,-1.63064 2.2659,-1.25 0.8654,0.33206 2.6616,0.60375 3.9916,0.60375 3.4632,0 2.9939,1.35329 -1.5009,4.32775 -5.1716,3.42247 -9.0809,4.42867 -9.0809,2.33736 z m -29.1127,65.64125 c -2.2752,-6.63703 -6.5759,-13.95104 -7.6007,-12.92624 -0.871,0.87095 2.5887,9.81682 5.926,15.32337 1.747,2.88252 3.3635,5.05381 3.5922,4.82508 0.2287,-0.22872 -0.6341,-3.47872 -1.9175,-7.22221 z m -6.3927,-29.95497 c -0.8474,-1.29326 -1.7553,-2.35139 -2.0176,-2.35139 -0.2623,0 -0.4671,3.0375 -0.455,6.75 l 0.022,6.75 1.9957,-4.39861 c 1.8251,-4.02271 1.864,-4.59954 0.455,-6.75 z"
       id="path3050"
       inkscape:connector-curvature="0" />
  </g>
</svg>
